<?xml version="1.0" encoding="iso-8859-1"?>
<!-- Generator: Adobe Illustrator 19.0.0, SVG Export Plug-In . SVG Version: 6.00 Build 0)  -->
<svg version="1.1" id="Layer_1" xmlns="http://www.w3.org/2000/svg" xmlns:xlink="http://www.w3.org/1999/xlink" x="0px" y="0px"
	 viewBox="0 0 512 512" style="enable-background:new 0 0 512 512;" xml:space="preserve">
<path style="fill:#EEBF00;" d="M145.506,58.983h-37.663c-16.22,0-29.492-13.272-29.492-29.492l0,0C78.351,13.272,91.622,0,107.843,0
	h296.304c16.22,0,29.491,13.272,29.491,29.492l0,0c0,16.22-13.272,29.492-29.491,29.492h-37.664H145.506z"/>
<polygon style="fill:#FF3F62;" points="145.506,289.361 145.506,29.492 366.483,29.492 366.483,292.155 "/>
<rect x="145.501" y="37.597" style="fill:#C70024;" width="220.981" height="60.717"/>
<rect x="200.933" y="98.305" style="fill:#FFA5B5;" width="111.134" height="199.29"/>
<polygon style="opacity:0.41;fill:#C70024;enable-background:new    ;" points="366.483,297.595 145.506,297.595 145.506,275.998 
	256.494,216.03 366.483,275.998 "/>
<polygon style="fill:#EEBF00;" points="163.478,387.473 78.351,298.812 199.934,280.795 257.95,172.438 312.657,282.504 
	433.638,304.196 345.865,390.236 362.62,512 253.667,455.11 143.041,508.673 "/>
<g style="opacity:0.34;">
	<polygon style="fill:#664400;" points="325.39,284.767 152.151,375.563 163.586,387.473 155.604,434.809 412.189,300.33 	"/>
</g>
<path style="fill:#664400;" d="M395.998,37.597H119.231c-4.478,0-8.106-3.629-8.106-8.106s3.628-8.106,8.106-8.106h276.767
	c4.478,0,8.106,3.629,8.106,8.106S400.475,37.597,395.998,37.597z"/>
<g style="opacity:0.09;">
	<polygon style="fill:#664400;" points="433.649,304.196 433.649,304.196 149.709,469.194 143.051,508.673 253.678,455.11 
		362.631,512 345.876,390.236 	"/>
</g>
<g>
</g>
<g>
</g>
<g>
</g>
<g>
</g>
<g>
</g>
<g>
</g>
<g>
</g>
<g>
</g>
<g>
</g>
<g>
</g>
<g>
</g>
<g>
</g>
<g>
</g>
<g>
</g>
<g>
</g>
</svg>
