<?xml version="1.0" encoding="iso-8859-1"?>
<!-- Generator: Adobe Illustrator 19.0.0, SVG Export Plug-In . SVG Version: 6.00 Build 0)  -->
<svg version="1.1" id="Layer_1" xmlns="http://www.w3.org/2000/svg" xmlns:xlink="http://www.w3.org/1999/xlink" x="0px" y="0px"
	 viewBox="0 0 297 297" style="enable-background:new 0 0 297 297;" xml:space="preserve">
<g>
	<g>
		<g>
			<g>
				<circle style="fill:#905835;" cx="148.5" cy="148.5" r="148.5"/>
			</g>
		</g>
	</g>
	<path style="fill:#7A4325;" d="M295.33,126.181l-94.137-94.137c-14.04,22.098-23.206,46.524-34.693,70.456c-3,7-10,14-11,21
		c-8.068,49.212-23.402,98.968-46.958,140.436l32.893,32.893c2.342,0.11,4.696,0.171,7.065,0.171c82.014,0,148.5-66.486,148.5-148.5
		C297,140.914,296.428,133.462,295.33,126.181z"/>
	<g>
		<polygon style="fill:#E74C3C;" points="95.807,129.871 148.5,147.435 201.193,129.871 201.193,32.044 95.807,32.044 		"/>
	</g>
	<g>
		<circle style="fill:#FFCD02;" cx="148.5" cy="224.022" r="56.478"/>
	</g>
	<g>
		<circle style="fill:#F5DB91;" cx="148.5" cy="224.022" r="37.652"/>
	</g>
	<g>
		<path style="fill:#D0D5D9;" d="M116.41,168.828h64.179c5.908,0,10.697-4.789,10.697-10.696l0,0
			c0-5.908-4.789-10.696-10.697-10.696H116.41c-5.908,0-10.696,4.789-10.696,10.696l0,0
			C105.714,164.04,110.503,168.828,116.41,168.828z"/>
	</g>
</g>
<g>
</g>
<g>
</g>
<g>
</g>
<g>
</g>
<g>
</g>
<g>
</g>
<g>
</g>
<g>
</g>
<g>
</g>
<g>
</g>
<g>
</g>
<g>
</g>
<g>
</g>
<g>
</g>
<g>
</g>
</svg>
