<?xml version="1.0" encoding="iso-8859-1"?>
<!-- Generator: Adobe Illustrator 19.0.0, SVG Export Plug-In . SVG Version: 6.00 Build 0)  -->
<svg version="1.1" id="Capa_1" xmlns="http://www.w3.org/2000/svg" xmlns:xlink="http://www.w3.org/1999/xlink" x="0px" y="0px"
	 viewBox="0 0 400 400" style="enable-background:new 0 0 400 400;" xml:space="preserve">
<g>
	<g>
		<path style="fill:#D66D5D;" d="M400,318.644C400,363.577,364.02,400,319.633,400H80.364C35.981,400,0,363.577,0,318.644V81.356
			C0,36.423,35.981,0,80.364,0h239.269C364.02,0,400,36.423,400,81.356V318.644z"/>
		<path style="fill:#CE6352;" d="M400,318.644v-179.91L229.003,68.469l-74.142,282.479L249.731,400h69.901
			C364.018,400,400,363.574,400,318.644z"/>
		<g>
			<g>
				<polygon style="fill:#7996B1;" points="245.138,350.947 200,301.282 154.861,350.947 154.861,182.208 245.138,182.208 				"/>
				<polygon style="fill:#C3E05E;" points="154.861,182.208 154.861,350.947 177.674,325.846 177.674,182.208 				"/>
				<polygon style="fill:#C3E05E;" points="245.138,182.208 223.284,182.208 223.284,326.899 245.138,350.947 				"/>
			</g>
			<ellipse style="fill:#5D505B;" cx="200" cy="136.938" rx="73.581" ry="74.487"/>
			<ellipse style="fill:#7C717A;" cx="200" cy="136.938" rx="59.316" ry="60.047"/>
			<ellipse style="fill:#FFFFFF;" cx="200" cy="136.938" rx="29.003" ry="29.361"/>
		</g>
		<path style="opacity:0.28;fill:#534551;enable-background:new    ;" d="M126.419,136.938c0,23.91,11.142,45.173,28.442,58.802
			v155.208l22.813-25.102l22.325-24.563V62.451C159.362,62.451,126.419,95.799,126.419,136.938z"/>
	</g>
</g>
<g>
</g>
<g>
</g>
<g>
</g>
<g>
</g>
<g>
</g>
<g>
</g>
<g>
</g>
<g>
</g>
<g>
</g>
<g>
</g>
<g>
</g>
<g>
</g>
<g>
</g>
<g>
</g>
<g>
</g>
</svg>
