<?xml version="1.0" encoding="iso-8859-1"?>
<!-- Generator: Adobe Illustrator 19.0.0, SVG Export Plug-In . SVG Version: 6.00 Build 0)  -->
<svg version="1.1" id="Capa_1" xmlns="http://www.w3.org/2000/svg" xmlns:xlink="http://www.w3.org/1999/xlink" x="0px" y="0px"
	 viewBox="0 0 400 400" style="enable-background:new 0 0 400 400;" xml:space="preserve">
<g>
	<g>
		<path style="fill:#D66D5D;" d="M400,318.643c0,44.931-35.982,81.356-80.367,81.356H80.365C35.981,399.999,0,363.573,0,318.643
			V81.356C0,36.423,35.98,0,80.365,0h239.268C364.018,0,400,36.423,400,81.356V318.643z"/>
		<path style="fill:#CE6352;" d="M400,318.643V153.134l-173.578-70.45l-117.067,220.56L281.751,400h37.882
			C364.018,399.999,400,363.574,400,318.643z"/>
		<polygon style="fill:#7996B1;" points="173.031,328.087 157.096,273.897 109.355,303.245 162.745,163.017 226.422,187.861 		"/>
		<polygon style="opacity:0.28;fill:#534551;enable-background:new    ;" points="173.031,328.087 157.096,273.897 109.355,303.245 
			162.745,163.017 226.422,187.861 		"/>
		<polygon style="fill:#7996B1;" points="226.967,328.087 242.902,273.897 290.643,303.245 237.253,163.017 173.576,187.861 		"/>
		<ellipse style="fill:#5D505B;" cx="199.998" cy="145.447" rx="67.383" ry="68.212"/>
		<ellipse style="fill:#736771;" cx="199.998" cy="145.447" rx="39.605" ry="40.093"/>
		<ellipse style="fill:#C3E05E;" cx="199.998" cy="145.447" rx="17.356" ry="17.569"/>
		<path style="opacity:0.28;fill:#534551;enable-background:new    ;" d="M248.559,192.71
			c12.406-11.472,18.822-28.908,18.822-47.263c0-37.672-30.167-68.21-67.381-68.212l-0.002,136.425
			C199.998,213.66,221.426,217.796,248.559,192.71z"/>
	</g>
</g>
<g>
</g>
<g>
</g>
<g>
</g>
<g>
</g>
<g>
</g>
<g>
</g>
<g>
</g>
<g>
</g>
<g>
</g>
<g>
</g>
<g>
</g>
<g>
</g>
<g>
</g>
<g>
</g>
<g>
</g>
</svg>
